<svg xmlns="http://www.w3.org/2000/svg" xmlns:xlink="http://www.w3.org/1999/xlink" viewBox="0 0 128.46 128.46"><defs><style>.cls-1{isolation:isolate;}.cls-11,.cls-2,.cls-4,.cls-5,.cls-6{opacity:0.5;}.cls-2{fill:url(#radial-gradient);}.cls-3{fill:url(#radial-gradient-2);}.cls-4{fill:#b9d928;mix-blend-mode:screen;}.cls-5,.cls-6,.cls-7{mix-blend-mode:multiply;}.cls-5{fill:url(#radial-gradient-3);}.cls-6{fill:url(#radial-gradient-4);}.cls-7{opacity:0.4;}.cls-8{fill:#2b86b0;}.cls-9{fill:#5e8dec;}.cls-10{fill:url(#radial-gradient-5);}.cls-12{fill:url(#radial-gradient-6);}</style><radialGradient id="radial-gradient" cx="64.23" cy="63.61" r="62.67" gradientUnits="userSpaceOnUse"><stop offset="0.06" stop-color="#5e8dec"/><stop offset="0.24" stop-color="#5f8eec" stop-opacity="0.99"/><stop offset="0.37" stop-color="#6091ec" stop-opacity="0.95"/><stop offset="0.48" stop-color="#6497ec" stop-opacity="0.88"/><stop offset="0.59" stop-color="#689fec" stop-opacity="0.79"/><stop offset="0.68" stop-color="#6ea9ed" stop-opacity="0.66"/><stop offset="0.78" stop-color="#75b6ed" stop-opacity="0.51"/><stop offset="0.87" stop-color="#7ec5ed" stop-opacity="0.34"/><stop offset="0.95" stop-color="#87d6ee" stop-opacity="0.14"/><stop offset="1" stop-color="#8ee1ee" stop-opacity="0"/></radialGradient><radialGradient id="radial-gradient-2" cx="49.04" cy="26.73" r="99.28" gradientTransform="translate(64.23 -26.6) rotate(45)" gradientUnits="userSpaceOnUse"><stop offset="0.14" stop-color="#b9d928"/><stop offset="0.94" stop-color="#5e8dec"/></radialGradient><radialGradient id="radial-gradient-3" cx="47.49" cy="36.71" r="90.85" gradientTransform="matrix(1, 0, 0, 1, 0, 0)" xlink:href="#radial-gradient-2"/><radialGradient id="radial-gradient-4" cx="57.96" cy="65.39" r="66.14" gradientTransform="matrix(1, 0, 0, 1, 0, 0)" xlink:href="#radial-gradient-2"/><radialGradient id="radial-gradient-5" cx="73.97" cy="33.32" r="4.09" gradientUnits="userSpaceOnUse"><stop offset="0.08" stop-color="#ffe245"/><stop offset="1" stop-color="#e38427" stop-opacity="0"/></radialGradient><radialGradient id="radial-gradient-6" cx="117.08" cy="40.82" r="4.2" gradientUnits="userSpaceOnUse"><stop offset="0" stop-color="#8ee1ee"/><stop offset="0.94" stop-color="#5e8dec"/></radialGradient></defs><title>Asset 5</title><g class="cls-1"><g id="Layer_2" data-name="Layer 2"><g id="BACKGROUND2"><circle class="cls-2" cx="64.23" cy="64.23" r="64.23"/><ellipse class="cls-3" cx="64.23" cy="64.23" rx="52.78" ry="52.68" transform="translate(-26.6 64.23) rotate(-45)"/><path class="cls-4" d="M15.73,70.2a52.74,52.74,0,0,1,98.81-21.81A52.74,52.74,0,1,0,18,89.67,53,53,0,0,1,15.73,70.2Z"/><path class="cls-5" d="M75.22,96.7a52.73,52.73,0,0,1-44-73.54,52.73,52.73,0,1,0,81.44,62.05A52.6,52.6,0,0,1,75.22,96.7Z"/><path class="cls-6" d="M97.85,23.61A47.83,47.83,0,0,1,11.5,64.45,52.73,52.73,0,1,0,97.85,23.61Z"/><g class="cls-7"><path class="cls-8" d="M40.44,22.48c2.87,3.84,1.41,9.21,1.43,14a21.62,21.62,0,0,0,17,20.45,10.89,10.89,0,0,0,6.89-.57,5.65,5.65,0,0,0,3.28-5.69c-.35-2.07-2.1-3.6-3-5.48a7.77,7.77,0,0,1,1.72-9c2-1.8,4.93-2.45,6.7-4.49,2.93-3.36,1.42-8.54-.35-12.63a27.28,27.28,0,0,1-2.24-7,52.94,52.94,0,0,0-7.61-.55,52.39,52.39,0,0,0-27.91,8A9.41,9.41,0,0,1,40.44,22.48Z"/><path class="cls-9" d="M30.58,104.83a5.5,5.5,0,0,0,2.74-4.93C33,96.13,28.09,94,27.69,90.25c-.27-2.55,1.71-4.85,4-6s4.86-1.62,7.25-2.55c1.2-.47,2.49-1.24,2.69-2.51a4.15,4.15,0,0,0-.74-2.58c-2.23-4.1-5.2-8.71-9.86-9.09-1.4-.12-2.84.18-4.21-.16-3.2-.8-4.57-4.71-4.26-8s1.71-6.4,1.84-9.69c.14-3.62-1.53-7.43-4.69-9.21a7,7,0,0,0-2.12-.76,52.74,52.74,0,0,0,13,65.17Z"/><path class="cls-9" d="M102,27.48c-2.89-.29-5.72-.59-7.22-2.88l.32.43a17.75,17.75,0,0,1-2.27,13.43,36.29,36.29,0,0,0-2.67,4.2,5.13,5.13,0,0,0,0,4.77c1.16,1.87,3.73,2.24,5.91,2s4.43-.86,6.55-.28c3.92,1.07,6.65,6.06,10.63,5.27a4.41,4.41,0,0,0,2.48-1.54A52.6,52.6,0,0,0,102,27.48Z"/><path class="cls-8" d="M104.27,98.52a7.26,7.26,0,0,0-1.23-2c-2.24-2.6-6-3.17-9.24-4.2-4-1.24-8.28-4.41-6.18-9A5.54,5.54,0,0,0,88,79.51c-.55-2-2-2-3.29-2-4.7.09-10.58.32-12.77-3.85-2-3.74.64-8.89-4.56-11.75a8.77,8.77,0,0,0-9.23.59c-5.06,3.58-6.17,10.05-6.52,16-.39,6.54-.06,13.56,3.73,18.91.9,1.26,2,2.62,1.8,4.15-.51,3.32-5.69,2.53-8.47,4.43s-2.32,6.08-.2,8.57a52.79,52.79,0,0,0,55.79-16Z"/></g><path class="cls-4" d="M80.09,29c4.56-3.2,10.31-2.24,15.31-4a9.73,9.73,0,0,0,2.49-1.35A52.74,52.74,0,0,0,12.17,55.82l.61,4.76c-1,5.1-1.06,10.52.86,15.34s6.1,8.93,11.21,9.83a8.09,8.09,0,0,0,6.52-1.37c2.62-2.18,2.81-6,3.25-9.42.46-3.59,2.16-7.82,6-7.94a5.72,5.72,0,0,1,5.19,3.43c2.11,4.42.43,9,.79,13.53C47.13,90.8,53,96.91,59.86,97.3S73.41,92,73.72,85.12c.15-3.35-1-6.61-2.46-9.66A69.4,69.4,0,0,0,63.6,62.73c-2.26-3-4.85-5.94-4.68-10a9.35,9.35,0,0,1,7.92-8.66c6.45-1,10.11,5.84,16.66,4.78a4.2,4.2,0,0,0,3.55-4.73c-1-5-9.56-2.54-10-9A7,7,0,0,1,80.09,29Z"/><path class="cls-4" d="M66,56.88A21.62,21.62,0,1,1,47.33,38.26,21.62,21.62,0,0,1,66,56.88Z"/><path class="cls-4" d="M82.6,30.13A9.81,9.81,0,0,1,70.82,41.91a9.71,9.71,0,0,1-7.3-7.3A9.81,9.81,0,0,1,75.3,22.83,9.71,9.71,0,0,1,82.6,30.13Z"/><path class="cls-4" d="M85.9,57.15a4.33,4.33,0,1,1-3.4-3.4A4.33,4.33,0,0,1,85.9,57.15Z"/><path class="cls-10" d="M77.79,32.54a4.73,4.73,0,0,0-.64-1.76,3.81,3.81,0,0,0-6.36,0,4.73,4.73,0,0,0-.64,1.76,4,4,0,0,0,1,3.86A4.12,4.12,0,0,0,74,37.56a4.07,4.07,0,0,0,2.8-1.16,4.11,4.11,0,0,0,1-3.86Z"/><g class="cls-11"><path class="cls-12" d="M117.08,45.09c5.5,0,5.51-8.54,0-8.54s-5.5,8.54,0,8.54Z"/></g></g></g></g></svg>