<?xml version="1.0" encoding="UTF-8" standalone="no"?>
<svg
   xmlns:dc="http://purl.org/dc/elements/1.1/"
   xmlns:cc="http://creativecommons.org/ns#"
   xmlns:rdf="http://www.w3.org/1999/02/22-rdf-syntax-ns#"
   xmlns:svg="http://www.w3.org/2000/svg"
   xmlns="http://www.w3.org/2000/svg"
   xmlns:sodipodi="http://sodipodi.sourceforge.net/DTD/sodipodi-0.dtd"
   xmlns:inkscape="http://www.inkscape.org/namespaces/inkscape"
   width="845.16528mm"
   height="207.2554mm"
   viewBox="0 0 845.16528 207.2554"
   version="1.1"
   id="svg842"
   inkscape:version="1.0.1 (3bc2e813f5, 2020-09-07)"
   sodipodi:docname="logositoSVG.svg">
  <defs
     id="defs836" />
  <sodipodi:namedview
     id="base"
     pagecolor="#606060"
     bordercolor="#000000"
     borderopacity="1"
     inkscape:pageopacity="1"
     inkscape:pageshadow="2"
     inkscape:zoom="0.175"
     inkscape:cx="735.81377"
     inkscape:cy="-574.62343"
     inkscape:document-units="mm"
     inkscape:current-layer="layer3"
     inkscape:document-rotation="0"
     showgrid="false"
     borderlayer="true"
     inkscape:showpageshadow="false"
     inkscape:snap-page="true"
     inkscape:window-width="1920"
     inkscape:window-height="1057"
     inkscape:window-x="-8"
     inkscape:window-y="-8"
     inkscape:window-maximized="1"
     fit-margin-top="0"
     fit-margin-left="0"
     fit-margin-right="0"
     fit-margin-bottom="0" />
  <metadata
     id="metadata839">
    <rdf:RDF>
      <cc:Work
         rdf:about="">
        <dc:format>image/svg+xml</dc:format>
        <dc:type
           rdf:resource="http://purl.org/dc/dcmitype/StillImage" />
        <dc:title></dc:title>
      </cc:Work>
    </rdf:RDF>
  </metadata>
  <g
     inkscape:label="Layer 1"
     inkscape:groupmode="layer"
     id="layer1"
     sodipodi:insensitive="true"
     transform="translate(225.03472,-338.41775)">
    <rect
       style="fill:#ffffff;stroke:none;stroke-width:0.264999"
       id="rect1405"
       width="210"
       height="297"
       x="0"
       y="0" />
  </g>
  <g
     inkscape:groupmode="layer"
     id="layer3"
     inkscape:label="Layer 2"
     transform="translate(225.03472,-338.41775)">
    <g
       id="g1464"
       inkscape:export-xdpi="300"
       inkscape:export-ydpi="300"
       transform="translate(76.897915,-749.63785)"
       style="display:inline">
      <path
         d="m -234.02311,1173.455 q 0,-1.0152 -0.37589,-1.9681 -0.37589,-0.9738 -1.10566,-1.7194 -0.72973,-0.7664 -1.83539,-1.2222 -1.08355,-0.4561 -2.5209,-0.4561 h -49.13548 v 35.8389 h 49.13548 q 1.50369,0 2.60935,-0.4561 1.10566,-0.4766 1.81328,-1.2222 0.72974,-0.7664 1.06143,-1.7195 0.35385,-0.9739 0.35385,-1.968 z m -60.81125,41.5565 q -1.59214,0 -2.89681,-0.4766 -1.30469,-0.4767 -2.25556,-1.3466 -0.92875,-0.8906 -1.43735,-2.113 -0.50856,-1.2222 -0.50856,-2.7138 v -44.7054 q 0,-1.4916 0.50856,-2.7138 0.50857,-1.2223 1.43735,-2.0924 0.9509,-0.8906 2.25556,-1.3672 1.30467,-0.4767 2.89681,-0.4767 h 55.17238 q 3.11796,0 5.70521,0.7047 2.58723,0.6841 4.66587,1.9059 2.10076,1.2222 3.67079,2.9002 1.57004,1.6573 2.60935,3.6047 1.03929,1.9472 1.57004,4.1018 0.53072,2.1544 0.53072,4.3503 v 23.0363 q 0,2.1752 -0.50857,4.3297 -0.50857,2.1337 -1.54792,4.0603 -1.01724,1.9266 -2.56513,3.5839 -1.54793,1.6573 -3.64868,2.8589 -2.07864,1.2015 -4.7101,1.8852 -2.60936,0.6841 -5.77154,0.6841 z"
         style="font-style:normal;font-variant:normal;font-weight:normal;font-stretch:normal;font-size:2.11667px;line-height:1.25;font-family:DREAMS;-inkscape-font-specification:'DREAMS, Normal';font-variant-ligatures:normal;font-variant-caps:normal;font-variant-numeric:normal;font-variant-east-asian:normal;white-space:pre;mix-blend-mode:normal;fill:#ffffff;fill-opacity:1;stroke:none;stroke-width:19.9456;stroke-linecap:round;stroke-linejoin:round;stroke-miterlimit:4;stroke-dasharray:none;stroke-opacity:1;paint-order:stroke markers fill"
         id="path1854-0" />
      <path
         d="m -210.60527,1208.3616 v -44.7054 q 0,-1.4916 0.50856,-2.7138 0.50857,-1.2223 1.43736,-2.0924 0.9509,-0.8906 2.25554,-1.3672 1.30468,-0.4767 2.89683,-0.4767 h 72.13318 v 11.0832 h -66.29528 v 11.746 h 58.24612 v 11.0831 h -58.24612 v 13.0098 h 66.29531 v 11.0831 h -72.13318 q -1.59215,0 -2.89682,-0.4766 -1.30469,-0.4767 -2.25554,-1.3465 -0.92876,-0.8907 -1.43737,-2.1131 -0.50856,-1.2222 -0.50856,-2.7138 z"
         style="font-style:normal;font-variant:normal;font-weight:normal;font-stretch:normal;font-size:2.11667px;line-height:1.25;font-family:DREAMS;-inkscape-font-specification:'DREAMS, Normal';font-variant-ligatures:normal;font-variant-caps:normal;font-variant-numeric:normal;font-variant-east-asian:normal;white-space:pre;mix-blend-mode:normal;fill:#ffffff;fill-opacity:1;stroke:none;stroke-width:19.9456;stroke-linecap:round;stroke-linejoin:round;stroke-miterlimit:4;stroke-dasharray:none;stroke-opacity:1;paint-order:stroke markers fill"
         id="path1856-4" />
      <path
         d="m -109.70289,1203.9284 h 66.29531 v 11.0831 h -72.13319 q -1.59215,0 -2.89682,-0.4766 -1.30468,-0.4767 -2.25555,-1.3466 -0.92875,-0.8906 -1.43735,-2.113 -0.50857,-1.2222 -0.50857,-2.7138 v -51.3553 h 12.93621 z"
         style="font-style:normal;font-variant:normal;font-weight:normal;font-stretch:normal;font-size:2.11667px;line-height:1.25;font-family:DREAMS;-inkscape-font-specification:'DREAMS, Normal';font-variant-ligatures:normal;font-variant-caps:normal;font-variant-numeric:normal;font-variant-east-asian:normal;white-space:pre;mix-blend-mode:normal;fill:#ffffff;fill-opacity:1;stroke:none;stroke-width:19.9456;stroke-linecap:round;stroke-linejoin:round;stroke-miterlimit:4;stroke-dasharray:none;stroke-opacity:1;paint-order:stroke markers fill"
         id="path1858-8" />
      <path
         d="m -63.90655,1168.0895 v -11.0832 h 79.25363 v 11.0832 h -33.14766 v 46.922 h -12.93621 v -46.922 z"
         style="font-style:normal;font-variant:normal;font-weight:normal;font-stretch:normal;font-size:2.11667px;line-height:1.25;font-family:DREAMS;-inkscape-font-specification:'DREAMS, Normal';font-variant-ligatures:normal;font-variant-caps:normal;font-variant-numeric:normal;font-variant-east-asian:normal;white-space:pre;mix-blend-mode:normal;fill:#ffffff;fill-opacity:1;stroke:none;stroke-width:19.9456;stroke-linecap:round;stroke-linejoin:round;stroke-miterlimit:4;stroke-dasharray:none;stroke-opacity:1;paint-order:stroke markers fill"
         id="path1860-3" />
      <path
         d="m 2.47718,1215.0115 38.54327,-54.2763 q 2.98528,-4.226 5.8821,-4.226 2.89683,0 5.8821,4.226 l 38.54327,54.2763 H 75.58334 l -28.68079,-40.6865 -28.68079,40.6865 z"
         style="font-style:normal;font-variant:normal;font-weight:normal;font-stretch:normal;font-size:2.11667px;line-height:1.25;font-family:DREAMS;-inkscape-font-specification:'DREAMS, Normal';font-variant-ligatures:normal;font-variant-caps:normal;font-variant-numeric:normal;font-variant-east-asian:normal;white-space:pre;mix-blend-mode:normal;fill:#ffffff;fill-opacity:1;stroke:none;stroke-width:19.9456;stroke-linecap:round;stroke-linejoin:round;stroke-miterlimit:4;stroke-dasharray:none;stroke-opacity:1;paint-order:stroke markers fill"
         id="path1862-0" />
      <path
         d="m 128.56647,1157.0063 h 61.38617 v 11.0832 h -61.14293 q -1.48158,0 -2.58724,0.4972 -1.08354,0.4971 -1.81328,1.3258 -0.70758,0.829 -1.06143,1.8851 -0.35384,1.0359 -0.35384,2.1338 0.0219,1.0979 0.37588,2.1544 0.37589,1.0359 1.10567,1.8645 0.72973,0.829 1.81328,1.3259 1.08355,0.4971 2.5209,0.4971 l 44.71285,0.059 q 3.11795,0 5.68308,0.6842 2.58724,0.6841 4.64376,1.9058 2.05653,1.2016 3.58234,2.8588 1.54792,1.6574 2.56513,3.6254 1.01724,1.9473 1.52581,4.1225 0.50856,2.1544 0.50856,4.3918 0.022,2.1752 -0.48652,4.3297 -0.50857,2.1337 -1.52582,4.1018 -1.01724,1.9472 -2.56512,3.6253 -1.52581,1.678 -3.60445,2.9003 -2.05653,1.2222 -4.64376,1.9266 -2.58725,0.7046 -5.68309,0.7046 h -61.2535 v -11.0831 h 61.01025 q 1.45947,0 2.54302,-0.6215 1.10566,-0.642 1.83539,-1.5952 0.72974,-0.9738 1.08355,-2.113 0.37589,-1.1601 0.37589,-2.1752 0,-0.9318 -0.37589,-1.9059 -0.35384,-0.9943 -1.08355,-1.7815 -0.72973,-0.7869 -1.83539,-1.2845 -1.08355,-0.5177 -2.54302,-0.5177 l -44.71284,-0.059 q -3.71501,0 -6.70029,-0.9738 -2.96317,-0.9738 -5.1966,-2.6517 -2.21132,-1.678 -3.6929,-3.8946 -1.48158,-2.2374 -2.21132,-4.744 -0.72973,-2.5274 -0.72973,-5.1583 0,-2.6517 0.75188,-5.1583 0.75188,-2.5274 2.23343,-4.744 1.48159,-2.2373 3.6929,-3.9153 2.23343,-1.678 5.1966,-2.6517 2.96316,-0.9739 6.65607,-0.9739 z"
         style="font-style:normal;font-variant:normal;font-weight:normal;font-stretch:normal;font-size:2.11667px;line-height:1.25;font-family:DREAMS;-inkscape-font-specification:'DREAMS, Normal';font-variant-ligatures:normal;font-variant-caps:normal;font-variant-numeric:normal;font-variant-east-asian:normal;white-space:pre;mix-blend-mode:normal;fill:#ffffff;fill-opacity:1;stroke:none;stroke-width:19.9456;stroke-linecap:round;stroke-linejoin:round;stroke-miterlimit:4;stroke-dasharray:none;stroke-opacity:1;paint-order:stroke markers fill"
         id="path1864-2" />
      <path
         d="M 207.88639,1157.0063 H 263.103 q 3.11795,0 5.68308,0.7047 2.58724,0.7047 4.64377,1.9266 2.07864,1.2222 3.60445,2.9002 1.54792,1.678 2.56513,3.6461 1.01724,1.9473 1.52581,4.1018 0.50856,2.1337 0.48652,4.3089 0,2.2167 -0.50857,4.3919 -0.50857,2.1751 -1.5258,4.1431 -1.01724,1.9474 -2.56514,3.6046 -1.5258,1.6574 -3.58232,2.8796 -2.05654,1.2016 -4.64378,1.8852 -2.56513,0.6831 -5.68308,0.6831 h -49.37872 v 22.8292 h -12.9141 l -0.0219,-51.3553 q 0,-1.4916 0.50857,-2.7138 0.50857,-1.2223 1.43735,-2.0924 0.9509,-0.8906 2.25554,-1.3672 1.30468,-0.4767 2.89683,-0.4767 z m 54.97336,24.0929 q 1.43736,0 2.5209,-0.5588 1.08355,-0.5599 1.81328,-1.4709 0.72974,-0.9112 1.08355,-2.0716 0.37589,-1.1808 0.37589,-2.4031 0.0219,-1.2222 -0.3317,-2.3823 -0.35384,-1.1808 -1.08354,-2.0924 -0.70759,-0.9112 -1.81329,-1.4708 -1.08354,-0.5588 -2.56512,-0.5588 h -49.13548 v 13.0097 z"
         style="font-style:normal;font-variant:normal;font-weight:normal;font-stretch:normal;font-size:2.11667px;line-height:1.25;font-family:DREAMS;-inkscape-font-specification:'DREAMS, Normal';font-variant-ligatures:normal;font-variant-caps:normal;font-variant-numeric:normal;font-variant-east-asian:normal;white-space:pre;mix-blend-mode:normal;fill:#ffffff;fill-opacity:1;stroke:none;stroke-width:19.9456;stroke-linecap:round;stroke-linejoin:round;stroke-miterlimit:4;stroke-dasharray:none;stroke-opacity:1;paint-order:stroke markers fill"
         id="path1866-2" />
      <path
         d="m 286.87467,1215.0115 38.54327,-54.2763 q 2.98528,-4.226 5.8821,-4.226 2.89683,0 5.88211,4.226 l 38.54327,54.2763 h -15.74458 l -28.6808,-40.6865 -28.68079,40.6865 z"
         style="font-style:normal;font-variant:normal;font-weight:normal;font-stretch:normal;font-size:2.11667px;line-height:1.25;font-family:DREAMS;-inkscape-font-specification:'DREAMS, Normal';font-variant-ligatures:normal;font-variant-caps:normal;font-variant-numeric:normal;font-variant-east-asian:normal;white-space:pre;mix-blend-mode:normal;fill:#ffffff;fill-opacity:1;stroke:none;stroke-width:19.9456;stroke-linecap:round;stroke-linejoin:round;stroke-miterlimit:4;stroke-dasharray:none;stroke-opacity:1;paint-order:stroke markers fill"
         id="path1868-2" />
      <path
         d="m 381.89492,1162.724 q 2.96317,-2.7759 6.5455,-4.2469 3.60444,-1.4708 7.82806,-1.4708 h 58.99796 v 11.0832 h -58.99796 q -1.57003,0 -2.96316,0.5588 -1.37102,0.5383 -2.41033,1.5123 -1.01724,0.9533 -1.61427,2.258 -0.5749,1.2845 -0.5749,2.7553 v 21.6691 q 0,1.3672 0.64124,2.6516 0.64125,1.2637 1.68061,2.2581 1.06143,0.9738 2.41033,1.5743 1.37101,0.601 2.83048,0.601 h 58.99796 v 11.0831 h -58.99796 q -2.10074,0 -4.09094,-0.414 -1.96806,-0.414 -3.80346,-1.1601 -1.81328,-0.7663 -3.44965,-1.823 -1.63638,-1.0565 -3.02951,-2.3201 -2.89683,-2.631 -4.51109,-6.0492 -1.59215,-3.4389 -1.59215,-7.4164 v -19.6388 q 0,-3.9775 1.57004,-7.3335 1.57003,-3.356 4.5332,-6.132 z"
         style="font-style:normal;font-variant:normal;font-weight:normal;font-stretch:normal;font-size:2.11667px;line-height:1.25;font-family:DREAMS;-inkscape-font-specification:'DREAMS, Normal';font-variant-ligatures:normal;font-variant-caps:normal;font-variant-numeric:normal;font-variant-east-asian:normal;white-space:pre;mix-blend-mode:normal;fill:#ffffff;fill-opacity:1;stroke:none;stroke-width:19.9456;stroke-linecap:round;stroke-linejoin:round;stroke-miterlimit:4;stroke-dasharray:none;stroke-opacity:1;paint-order:stroke markers fill"
         id="path1870-8" />
      <path
         d="m 464.00116,1208.3616 v -44.7054 q 0,-1.4916 0.50857,-2.7138 0.50857,-1.2223 1.43736,-2.0924 0.9509,-0.8906 2.25554,-1.3672 1.30467,-0.4767 2.89683,-0.4767 h 72.13318 v 11.0832 h -66.29531 v 11.746 h 58.24611 v 11.0831 h -58.24611 v 13.0098 h 66.29531 v 11.0831 h -72.13318 q -1.59216,0 -2.89683,-0.4766 -1.30468,-0.4767 -2.25554,-1.3465 -0.92875,-0.8907 -1.43736,-2.1131 -0.50857,-1.2222 -0.50857,-2.7138 z"
         style="font-style:normal;font-variant:normal;font-weight:normal;font-stretch:normal;font-size:2.11667px;line-height:1.25;font-family:DREAMS;-inkscape-font-specification:'DREAMS, Normal';font-variant-ligatures:normal;font-variant-caps:normal;font-variant-numeric:normal;font-variant-east-asian:normal;white-space:pre;mix-blend-mode:normal;fill:#ffffff;fill-opacity:1;stroke:none;stroke-width:19.9456;stroke-linecap:round;stroke-linejoin:round;stroke-miterlimit:4;stroke-dasharray:none;stroke-opacity:1;paint-order:stroke markers fill"
         id="path1872-41" />
      <path
         d="m -113.19257,1244.0462 10.60262,-15.9374 q 0.82118,-1.241 1.61807,-1.241 0.79683,0 1.61807,1.241 l 10.60261,15.9374 h -4.33107 l -7.88961,-11.947 -7.88962,11.947 z"
         style="font-style:normal;font-variant:normal;font-weight:normal;font-stretch:normal;font-size:0.634609px;line-height:1.25;font-family:DREAMS;-inkscape-font-specification:'DREAMS, Normal';font-variant-ligatures:normal;font-variant-caps:normal;font-variant-numeric:normal;font-variant-east-asian:normal;white-space:pre;mix-blend-mode:normal;fill:#ffffff;fill-opacity:1;stroke:none;stroke-width:6.39455;stroke-linecap:round;stroke-linejoin:round;stroke-miterlimit:4;stroke-dasharray:none;stroke-opacity:1;paint-order:markers stroke fill"
         id="path1885-0" />
      <path
         d="m -69.14578,1238.9911 0.48052,0.4141 v -12.4092 h 3.55853 l 0.006,14.7207 q 0,0.5838 -0.20072,1.0159 -0.20072,0.4323 -0.53534,0.7179 -0.32849,0.2857 -0.76645,0.4323 -0.43192,0.1457 -0.90026,0.1457 -0.55355,0 -1.10101,-0.1888 -0.54139,-0.1946 -0.97936,-0.5655 l -13.24871,-11.2231 -0.48052,-0.4141 v 12.4094 h -3.55855 l -0.006,-14.7209 q 0,-0.5837 0.20072,-1.0158 0.20072,-0.4323 0.52921,-0.718 0.33453,-0.2923 0.76645,-0.4323 0.43795,-0.1457 0.90639,-0.1457 0.55356,0 1.09494,0.1946 0.54742,0.1888 0.98543,0.5598 z"
         style="font-style:normal;font-variant:normal;font-weight:normal;font-stretch:normal;font-size:0.634609px;line-height:1.25;font-family:DREAMS;-inkscape-font-specification:'DREAMS, Normal';font-variant-ligatures:normal;font-variant-caps:normal;font-variant-numeric:normal;font-variant-east-asian:normal;white-space:pre;mix-blend-mode:normal;fill:#ffffff;fill-opacity:1;stroke:none;stroke-width:6.39455;stroke-linecap:round;stroke-linejoin:round;stroke-miterlimit:4;stroke-dasharray:none;stroke-opacity:1;paint-order:markers stroke fill"
         id="path1887-7" />
      <path
         d="m -52.13171,1244.0462 10.60261,-15.9374 q 0.82118,-1.241 1.61807,-1.241 0.79684,0 1.61808,1.241 l 10.60261,15.9374 h -4.33107 l -7.88962,-11.947 -7.88961,11.947 z"
         style="font-style:normal;font-variant:normal;font-weight:normal;font-stretch:normal;font-size:0.634609px;line-height:1.25;font-family:DREAMS;-inkscape-font-specification:'DREAMS, Normal';font-variant-ligatures:normal;font-variant-caps:normal;font-variant-numeric:normal;font-variant-east-asian:normal;white-space:pre;mix-blend-mode:normal;fill:#ffffff;fill-opacity:1;stroke:none;stroke-width:6.39455;stroke-linecap:round;stroke-linejoin:round;stroke-miterlimit:4;stroke-dasharray:none;stroke-opacity:1;paint-order:markers stroke fill"
         id="path1889-00" />
      <path
         d="m -25.81678,1242.0935 v -13.127 q 0,-0.4381 0.13995,-0.7966 0.13994,-0.3585 0.39539,-0.6144 0.26159,-0.2617 0.62046,-0.4016 0.35888,-0.14 0.79684,-0.14 h 19.84266 v 3.2544 h -18.23676 v 3.4491 h 16.02255 v 3.2543 h -16.02255 v 3.8201 h 18.23676 v 3.2545 h -19.84266 q -0.43796,0 -0.79684,-0.14 -0.35887,-0.1399 -0.62046,-0.3958 -0.25545,-0.2617 -0.39539,-0.6202 -0.13995,-0.3585 -0.13995,-0.7966 z"
         style="font-style:normal;font-variant:normal;font-weight:normal;font-stretch:normal;font-size:0.634609px;line-height:1.25;font-family:DREAMS;-inkscape-font-specification:'DREAMS, Normal';font-variant-ligatures:normal;font-variant-caps:normal;font-variant-numeric:normal;font-variant-east-asian:normal;white-space:pre;mix-blend-mode:normal;fill:#ffffff;fill-opacity:1;stroke:none;stroke-width:6.39455;stroke-linecap:round;stroke-linejoin:round;stroke-miterlimit:4;stroke-dasharray:none;stroke-opacity:1;paint-order:markers stroke fill"
         id="path1891-1" />
      <path
         d="m 0.33389,1227.0138 h 15.18919 q 0.8577,0 1.56332,0.2071 0.71172,0.207 1.27742,0.5655 0.57177,0.3585 0.99153,0.8512 0.42578,0.4927 0.70558,1.0706 0.2798,0.5722 0.41975,1.2044 0.13994,0.6269 0.13381,1.2652 0,0.6509 -0.13995,1.2897 -0.13995,0.6384 -0.41974,1.2165 -0.2798,0.5723 -0.70568,1.0585 -0.41974,0.4869 -0.98544,0.8454 -0.56573,0.3527 -1.27742,0.5531 -0.70568,0.2003 -1.56333,0.2003 h -0.0671 l 5.47468,6.7034 h -4.41015 l -5.47467,-6.7034 H 1.93947 v 6.7034 h -3.55244 l -0.006,-15.0797 q 0,-0.438 0.13995,-0.7965 0.13994,-0.3585 0.39539,-0.6144 0.26159,-0.2617 0.62046,-0.4017 0.35888,-0.1399 0.79684,-0.1399 z m 15.12227,7.0745 q 0.3954,0 0.6935,-0.1639 0.29811,-0.1639 0.49883,-0.4323 0.20071,-0.2674 0.2981,-0.6087 0.10343,-0.347 0.10343,-0.7055 0.006,-0.3584 -0.0911,-0.6997 -0.0973,-0.347 -0.29811,-0.6144 -0.19468,-0.2674 -0.49882,-0.4323 -0.29811,-0.1639 -0.70558,-0.1639 H 1.94005 v 3.82 z"
         style="font-style:normal;font-variant:normal;font-weight:normal;font-stretch:normal;font-size:0.634609px;line-height:1.25;font-family:DREAMS;-inkscape-font-specification:'DREAMS, Normal';font-variant-ligatures:normal;font-variant-caps:normal;font-variant-numeric:normal;font-variant-east-asian:normal;white-space:pre;mix-blend-mode:normal;fill:#ffffff;fill-opacity:1;stroke:none;stroke-width:6.39455;stroke-linecap:round;stroke-linejoin:round;stroke-miterlimit:4;stroke-dasharray:none;stroke-opacity:1;paint-order:markers stroke fill"
         id="path1893-8" />
      <path
         d="m 24.47112,1242.3672 q -0.79683,-0.7726 -1.24092,-1.7762 -0.43796,-1.0098 -0.43796,-2.1777 v -5.7666 q 0,-1.168 0.43192,-2.1534 0.43191,-0.9855 1.24701,-1.8006 0.81514,-0.8148 1.80056,-1.247 0.99153,-0.4323 2.15337,-0.4323 h 10.53571 q 1.16184,0 2.14729,0.4323 0.99152,0.4323 1.80664,1.247 0.81514,0.8148 1.24701,1.8006 0.43192,0.9854 0.43192,2.1534 v 5.7666 q 0,1.1679 -0.44409,2.1777 -0.43796,1.0037 -1.23484,1.7762 -0.38322,0.371 -0.83335,0.6815 -0.45013,0.3106 -0.95499,0.5349 -0.49883,0.2195 -1.04628,0.3403 -0.54138,0.1217 -1.11926,0.1217 H 28.42515 q -0.5779,0 -1.12535,-0.1217 -0.54139,-0.1218 -1.04627,-0.3403 -0.49882,-0.2253 -0.94895,-0.5349 -0.45013,-0.3105 -0.83336,-0.6815 z m 1.87356,-3.6559 q 0,0.4017 0.17637,0.7784 0.17637,0.3709 0.4623,0.6633 0.29197,0.2856 0.66302,0.462 0.37719,0.1764 0.77862,0.1764 H 38.9607 q 0.40144,0 0.77259,-0.1764 0.37718,-0.1764 0.66302,-0.462 0.29197,-0.2924 0.46834,-0.6633 0.17637,-0.3767 0.17637,-0.7784 v -6.3627 q 0,-0.4323 -0.1642,-0.809 -0.15816,-0.3835 -0.44409,-0.6634 -0.2798,-0.2856 -0.66302,-0.4438 -0.37719,-0.1639 -0.80901,-0.1639 H 28.42499 q -0.43191,0 -0.81514,0.1639 -0.37718,0.1582 -0.66302,0.4438 -0.27979,0.2799 -0.44409,0.6634 -0.15816,0.3767 -0.15816,0.809 z"
         style="font-style:normal;font-variant:normal;font-weight:normal;font-stretch:normal;font-size:0.634609px;line-height:1.25;font-family:DREAMS;-inkscape-font-specification:'DREAMS, Normal';font-variant-ligatures:normal;font-variant-caps:normal;font-variant-numeric:normal;font-variant-east-asian:normal;white-space:pre;mix-blend-mode:normal;fill:#ffffff;fill-opacity:1;stroke:none;stroke-width:6.39455;stroke-linecap:round;stroke-linejoin:round;stroke-miterlimit:4;stroke-dasharray:none;stroke-opacity:1;paint-order:markers stroke fill"
         id="path1895-86" />
      <path
         d="M 52.09997,1227.0138 H 68.9863 v 3.2544 H 52.16688 q -0.40757,0 -0.71171,0.1457 -0.29811,0.1457 -0.49883,0.3892 -0.19468,0.2435 -0.29197,0.5531 -0.0973,0.3038 -0.0973,0.6269 0.006,0.322 0.10343,0.6326 0.10342,0.3039 0.30414,0.5473 0.20072,0.2435 0.49882,0.3892 0.29811,0.1457 0.69341,0.1457 l 12.29978,0.019 q 0.8577,0 1.56331,0.2003 0.71172,0.2004 1.27743,0.5598 0.56573,0.3528 0.98544,0.8397 0.42579,0.4869 0.70558,1.0646 0.2798,0.5722 0.41975,1.2104 0.13994,0.6326 0.13994,1.2896 0.006,0.6384 -0.13381,1.2714 -0.13994,0.6269 -0.41974,1.2044 -0.2798,0.5723 -0.70558,1.0645 -0.41975,0.4927 -0.99152,0.8521 -0.56573,0.3585 -1.27743,0.5656 -0.71171,0.207 -1.56332,0.207 H 47.61687 v -3.2544 h 16.78292 q 0.40143,0 0.69954,-0.1822 0.30414,-0.1888 0.50486,-0.4687 0.20072,-0.2856 0.29811,-0.6202 0.10342,-0.3402 0.10342,-0.6383 0,-0.2742 -0.10342,-0.5598 -0.0973,-0.2924 -0.29811,-0.5234 -0.20072,-0.231 -0.50486,-0.3767 -0.29811,-0.1524 -0.69954,-0.1524 l -12.29977,-0.019 q -1.02194,0 -1.84314,-0.2856 -0.81514,-0.2857 -1.4295,-0.7784 -0.60829,-0.4927 -1.01586,-1.1436 -0.40757,-0.6566 -0.60829,-1.393 -0.20072,-0.7419 -0.20072,-1.5146 0,-0.7784 0.20686,-1.5147 0.20685,-0.7419 0.61442,-1.393 0.40757,-0.6566 1.01586,-1.1496 0.61442,-0.4927 1.4295,-0.7784 0.81514,-0.2856 1.83098,-0.2856 z"
         style="font-style:normal;font-variant:normal;font-weight:normal;font-stretch:normal;font-size:0.634609px;line-height:1.25;font-family:DREAMS;-inkscape-font-specification:'DREAMS, Normal';font-variant-ligatures:normal;font-variant-caps:normal;font-variant-numeric:normal;font-variant-east-asian:normal;white-space:pre;mix-blend-mode:normal;fill:#ffffff;fill-opacity:1;stroke:none;stroke-width:6.39455;stroke-linecap:round;stroke-linejoin:round;stroke-miterlimit:4;stroke-dasharray:none;stroke-opacity:1;paint-order:markers stroke fill"
         id="path1897-4" />
      <path
         d="m 73.91957,1227.0138 h 15.18918 q 0.8577,0 1.56332,0.2071 0.71172,0.207 1.27743,0.5655 0.57176,0.3585 0.99153,0.8512 0.42578,0.4927 0.70558,1.0706 0.2798,0.5722 0.41974,1.2044 0.13995,0.6269 0.13381,1.2652 0,0.6509 -0.13994,1.2897 -0.13995,0.6384 -0.41975,1.2165 -0.27979,0.5723 -0.70567,1.0585 -0.41975,0.4869 -0.98545,0.8454 -0.56573,0.3527 -1.27742,0.5531 -0.70558,0.2003 -1.56332,0.2003 H 75.52533 v 6.7034 h -3.55246 l -0.006,-15.0797 q 0,-0.438 0.13994,-0.7965 0.13995,-0.3585 0.3954,-0.6144 0.26159,-0.2617 0.62046,-0.4017 0.35888,-0.1399 0.79684,-0.1399 z m 15.12227,7.0745 q 0.39539,0 0.6935,-0.1639 0.29811,-0.1639 0.49882,-0.4323 0.20072,-0.2674 0.29811,-0.6087 0.10342,-0.347 0.10342,-0.7055 0.006,-0.3584 -0.0911,-0.6997 -0.0973,-0.347 -0.2981,-0.6144 -0.19468,-0.2674 -0.49883,-0.4323 -0.2981,-0.1639 -0.70558,-0.1639 H 75.52572 v 3.82 z"
         style="font-style:normal;font-variant:normal;font-weight:normal;font-stretch:normal;font-size:0.634609px;line-height:1.25;font-family:DREAMS;-inkscape-font-specification:'DREAMS, Normal';font-variant-ligatures:normal;font-variant-caps:normal;font-variant-numeric:normal;font-variant-east-asian:normal;white-space:pre;mix-blend-mode:normal;fill:#ffffff;fill-opacity:1;stroke:none;stroke-width:6.39455;stroke-linecap:round;stroke-linejoin:round;stroke-miterlimit:4;stroke-dasharray:none;stroke-opacity:1;paint-order:markers stroke fill"
         id="path1899-2" />
      <path
         d="m 95.64794,1244.0462 10.60262,-15.9374 q 0.82118,-1.241 1.61808,-1.241 0.79683,0 1.61807,1.241 l 10.60261,15.9374 h -4.33107 l -7.88961,-11.947 -7.88962,11.947 z"
         style="font-style:normal;font-variant:normal;font-weight:normal;font-stretch:normal;font-size:0.634609px;line-height:1.25;font-family:DREAMS;-inkscape-font-specification:'DREAMS, Normal';font-variant-ligatures:normal;font-variant-caps:normal;font-variant-numeric:normal;font-variant-east-asian:normal;white-space:pre;mix-blend-mode:normal;fill:#ffffff;fill-opacity:1;stroke:none;stroke-width:6.39455;stroke-linecap:round;stroke-linejoin:round;stroke-miterlimit:4;stroke-dasharray:none;stroke-opacity:1;paint-order:markers stroke fill"
         id="path1901-9" />
      <path
         d="m 121.78647,1228.6927 q 0.81514,-0.8148 1.80056,-1.247 0.99152,-0.4323 2.15337,-0.4323 h 16.22936 v 3.2545 H 125.7404 q -0.43191,0 -0.81514,0.1639 -0.37718,0.1581 -0.66302,0.4438 -0.2798,0.2799 -0.44409,0.6633 -0.15816,0.3767 -0.15816,0.809 v 6.3628 q 0,0.4016 0.17637,0.7783 0.17637,0.371 0.46231,0.6633 0.29197,0.2857 0.66302,0.462 0.37709,0.1764 0.77862,0.1764 h 16.22936 v 3.2544 h -16.22936 q -0.57791,0 -1.12536,-0.1217 -0.54138,-0.1217 -1.04627,-0.3403 -0.49882,-0.2252 -0.94895,-0.5349 -0.45013,-0.3105 -0.83336,-0.6815 -0.79683,-0.7726 -1.24092,-1.7761 -0.43796,-1.0099 -0.43796,-2.1778 v -5.7666 q 0,-1.168 0.43192,-2.1534 0.43192,-0.9854 1.24701,-1.8006 z"
         style="font-style:normal;font-variant:normal;font-weight:normal;font-stretch:normal;font-size:0.634609px;line-height:1.25;font-family:DREAMS;-inkscape-font-specification:'DREAMS, Normal';font-variant-ligatures:normal;font-variant-caps:normal;font-variant-numeric:normal;font-variant-east-asian:normal;white-space:pre;mix-blend-mode:normal;fill:#ffffff;fill-opacity:1;stroke:none;stroke-width:6.39455;stroke-linecap:round;stroke-linejoin:round;stroke-miterlimit:4;stroke-dasharray:none;stroke-opacity:1;paint-order:markers stroke fill"
         id="path1903-5" />
      <path
         d="m 144.37253,1242.0935 v -13.127 q 0,-0.4381 0.13995,-0.7966 0.13994,-0.3585 0.3954,-0.6144 0.26158,-0.2617 0.62046,-0.4016 0.35887,-0.14 0.79683,-0.14 h 19.84266 v 3.2544 h -18.23676 v 3.4491 h 16.02254 v 3.2543 h -16.02254 v 3.8201 h 18.23675 v 3.2545 h -19.84266 q -0.43796,0 -0.79683,-0.14 -0.35888,-0.1399 -0.62046,-0.3958 -0.25545,-0.2617 -0.3954,-0.6202 -0.13995,-0.3585 -0.13995,-0.7966 z"
         style="font-style:normal;font-variant:normal;font-weight:normal;font-stretch:normal;font-size:0.634609px;line-height:1.25;font-family:DREAMS;-inkscape-font-specification:'DREAMS, Normal';font-variant-ligatures:normal;font-variant-caps:normal;font-variant-numeric:normal;font-variant-east-asian:normal;white-space:pre;mix-blend-mode:normal;fill:#ffffff;fill-opacity:1;stroke:none;stroke-width:6.39455;stroke-linecap:round;stroke-linejoin:round;stroke-miterlimit:4;stroke-dasharray:none;stroke-opacity:1;paint-order:markers stroke fill"
         id="path1905-7" />
      <path
         d="m 181.34481,1228.6927 q 0.81514,-0.8148 1.80056,-1.247 0.99153,-0.4323 2.15337,-0.4323 h 16.22937 v 3.2545 h -16.22937 q -0.43192,0 -0.81514,0.1639 -0.37719,0.1581 -0.66302,0.4438 -0.2798,0.2799 -0.44409,0.6633 -0.15816,0.3767 -0.15816,0.809 v 6.3628 q 0,0.4016 0.17637,0.7783 0.17637,0.371 0.4623,0.6633 0.29197,0.2857 0.66302,0.462 0.37719,0.1764 0.77863,0.1764 h 16.22937 v 3.2544 h -16.22937 q -0.57791,0 -1.12536,-0.1217 -0.54138,-0.1217 -1.04626,-0.3403 -0.49883,-0.2252 -0.94895,-0.5349 -0.45013,-0.3105 -0.83336,-0.6815 -0.79683,-0.7726 -1.24092,-1.7761 -0.43796,-1.0099 -0.43796,-2.1778 v -5.7666 q 0,-1.168 0.43192,-2.1534 0.43192,-0.9854 1.24701,-1.8006 z"
         style="font-style:normal;font-variant:normal;font-weight:normal;font-stretch:normal;font-size:0.634609px;line-height:1.25;font-family:DREAMS;-inkscape-font-specification:'DREAMS, Normal';font-variant-ligatures:normal;font-variant-caps:normal;font-variant-numeric:normal;font-variant-east-asian:normal;white-space:pre;mix-blend-mode:normal;fill:#ffffff;fill-opacity:1;stroke:none;stroke-width:6.39455;stroke-linecap:round;stroke-linejoin:round;stroke-miterlimit:4;stroke-dasharray:none;stroke-opacity:1;paint-order:markers stroke fill"
         id="path1907-9" />
      <path
         d="m 205.60977,1242.3672 q -0.79683,-0.7726 -1.24092,-1.7762 -0.43796,-1.0098 -0.43796,-2.1777 v -5.7666 q 0,-1.168 0.43192,-2.1534 0.43191,-0.9855 1.24701,-1.8006 0.81514,-0.8148 1.80055,-1.247 0.99153,-0.4323 2.15338,-0.4323 h 10.53571 q 1.16184,0 2.14729,0.4323 0.99152,0.4323 1.80664,1.247 0.81514,0.8148 1.247,1.8006 0.43192,0.9854 0.43192,2.1534 v 5.7666 q 0,1.1679 -0.44409,2.1777 -0.43796,1.0037 -1.23484,1.7762 -0.38322,0.371 -0.83335,0.6815 -0.45013,0.3106 -0.95499,0.5349 -0.49883,0.2195 -1.04628,0.3403 -0.54138,0.1217 -1.11926,0.1217 h -10.53571 q -0.57791,0 -1.12536,-0.1217 -0.54138,-0.1218 -1.04626,-0.3403 -0.49882,-0.2253 -0.94895,-0.5349 -0.45013,-0.3105 -0.83335,-0.6815 z m 1.87356,-3.6559 q 0,0.4017 0.17637,0.7784 0.17637,0.3709 0.4623,0.6633 0.29197,0.2856 0.66302,0.462 0.37719,0.1764 0.77862,0.1764 h 10.53571 q 0.40144,0 0.77258,-0.1764 0.37719,-0.1764 0.66303,-0.462 0.29197,-0.2924 0.46834,-0.6633 0.17637,-0.3767 0.17637,-0.7784 v -6.3627 q 0,-0.4323 -0.1642,-0.809 -0.15816,-0.3835 -0.44409,-0.6634 -0.2798,-0.2856 -0.66302,-0.4438 -0.37719,-0.1639 -0.80901,-0.1639 h -10.53571 q -0.43191,0 -0.81514,0.1639 -0.37709,0.1582 -0.66302,0.4438 -0.27979,0.2799 -0.44409,0.6634 -0.15816,0.3767 -0.15816,0.809 z"
         style="font-style:normal;font-variant:normal;font-weight:normal;font-stretch:normal;font-size:0.634609px;line-height:1.25;font-family:DREAMS;-inkscape-font-specification:'DREAMS, Normal';font-variant-ligatures:normal;font-variant-caps:normal;font-variant-numeric:normal;font-variant-east-asian:normal;white-space:pre;mix-blend-mode:normal;fill:#ffffff;fill-opacity:1;stroke:none;stroke-width:6.39455;stroke-linecap:round;stroke-linejoin:round;stroke-miterlimit:4;stroke-dasharray:none;stroke-opacity:1;paint-order:markers stroke fill"
         id="path1909-0" />
      <path
         d="m 228.96231,1228.9665 q 0,-0.4381 0.13994,-0.7966 0.13995,-0.3585 0.3954,-0.6144 0.26159,-0.2617 0.62046,-0.4016 0.35888,-0.14 0.79684,-0.14 h 1.44166 q 0.20685,0 0.40757,0.058 0.20685,0.057 0.38936,0.1582 0.18854,0.098 0.3467,0.2377 0.15816,0.1399 0.27376,0.3106 l 7.38472,11.1865 7.38474,-11.1865 q 0.1156,-0.1707 0.27375,-0.3106 0.15816,-0.14 0.34067,-0.2377 0.18854,-0.1035 0.38936,-0.1582 0.20685,-0.058 0.41361,-0.058 h 1.43558 q 0.43796,0 0.79683,0.14 0.35888,0.1399 0.61433,0.4016 0.26159,0.2559 0.40144,0.6144 0.13994,0.3585 0.13994,0.7966 l 0.0125,15.0797 h -3.55853 v -11.6551 l -7.02584,10.5601 q -0.12777,0.1946 -0.30415,0.4132 -0.17033,0.2185 -0.37718,0.4016 -0.20685,0.1821 -0.44409,0.3039 -0.23724,0.1217 -0.49882,0.1217 -0.25546,0 -0.49269,-0.1217 -0.23724,-0.1218 -0.44409,-0.3039 -0.20686,-0.1821 -0.37719,-0.4016 -0.17033,-0.2195 -0.2981,-0.4132 l -7.03192,-10.5722 v 11.6672 h -3.55853 z"
         style="font-style:normal;font-variant:normal;font-weight:normal;font-stretch:normal;font-size:0.634609px;line-height:1.25;font-family:DREAMS;-inkscape-font-specification:'DREAMS, Normal';font-variant-ligatures:normal;font-variant-caps:normal;font-variant-numeric:normal;font-variant-east-asian:normal;white-space:pre;mix-blend-mode:normal;fill:#ffffff;fill-opacity:1;stroke:none;stroke-width:6.39455;stroke-linecap:round;stroke-linejoin:round;stroke-miterlimit:4;stroke-dasharray:none;stroke-opacity:1;paint-order:markers stroke fill"
         id="path1911-2" />
      <path
         d="m 258.17882,1227.0138 h 15.18917 q 0.8577,0 1.56333,0.2071 0.71171,0.207 1.27743,0.5655 0.57176,0.3585 0.99152,0.8512 0.42578,0.4927 0.70567,1.0706 0.2798,0.5722 0.41975,1.2044 0.13994,0.6269 0.13381,1.2652 0,0.6509 -0.13995,1.2897 -0.13994,0.6384 -0.41974,1.2165 -0.2798,0.5723 -0.70558,1.0585 -0.41975,0.4869 -0.98545,0.8454 -0.56573,0.3527 -1.27742,0.5531 -0.70568,0.2003 -1.56333,0.2003 h -13.58327 v 6.7034 h -3.55246 l -0.006,-15.0797 q 0,-0.438 0.13995,-0.7965 0.13995,-0.3585 0.3954,-0.6144 0.26158,-0.2617 0.62046,-0.4017 0.35888,-0.1399 0.79683,-0.1399 z m 15.12226,7.0745 q 0.3954,0 0.69341,-0.1639 0.29811,-0.1639 0.49882,-0.4323 0.20072,-0.2674 0.29811,-0.6087 0.10343,-0.347 0.10343,-0.7055 0.006,-0.3584 -0.0911,-0.6997 -0.0973,-0.347 -0.29811,-0.6144 -0.19468,-0.2674 -0.49882,-0.4323 -0.29811,-0.1639 -0.70558,-0.1639 h -13.51636 v 3.82 z"
         style="font-style:normal;font-variant:normal;font-weight:normal;font-stretch:normal;font-size:0.634609px;line-height:1.25;font-family:DREAMS;-inkscape-font-specification:'DREAMS, Normal';font-variant-ligatures:normal;font-variant-caps:normal;font-variant-numeric:normal;font-variant-east-asian:normal;white-space:pre;mix-blend-mode:normal;fill:#ffffff;fill-opacity:1;stroke:none;stroke-width:6.39455;stroke-linecap:round;stroke-linejoin:round;stroke-miterlimit:4;stroke-dasharray:none;stroke-opacity:1;paint-order:markers stroke fill"
         id="path1913-7" />
      <path
         d="m 279.90719,1244.0462 10.60261,-15.9374 q 0.82118,-1.241 1.61807,-1.241 0.79684,0 1.61807,1.241 l 10.60263,15.9374 h -4.33108 l -7.88962,-11.947 -7.8896,11.947 z"
         style="font-style:normal;font-variant:normal;font-weight:normal;font-stretch:normal;font-size:0.634609px;line-height:1.25;font-family:DREAMS;-inkscape-font-specification:'DREAMS, Normal';font-variant-ligatures:normal;font-variant-caps:normal;font-variant-numeric:normal;font-variant-east-asian:normal;white-space:pre;mix-blend-mode:normal;fill:#ffffff;fill-opacity:1;stroke:none;stroke-width:6.39455;stroke-linecap:round;stroke-linejoin:round;stroke-miterlimit:4;stroke-dasharray:none;stroke-opacity:1;paint-order:markers stroke fill"
         id="path1915-0" />
      <path
         d="m 323.95398,1238.9911 0.48051,0.4141 v -12.4092 h 3.55854 l 0.006,14.7207 q 0,0.5838 -0.20072,1.0159 -0.20072,0.4323 -0.53534,0.7179 -0.32849,0.2857 -0.76645,0.4323 -0.43192,0.1457 -0.90026,0.1457 -0.55355,0 -1.10101,-0.1888 -0.54139,-0.1946 -0.97936,-0.5655 l -13.24872,-11.2231 -0.48052,-0.4141 v 12.4094 h -3.55853 l -0.006,-14.7209 q 0,-0.5837 0.20072,-1.0158 0.20071,-0.4323 0.5292,-0.718 0.33453,-0.2923 0.76645,-0.4323 0.43796,-0.1457 0.9064,-0.1457 0.55355,0 1.09493,0.1946 0.54751,0.1888 0.98544,0.5598 z"
         style="font-style:normal;font-variant:normal;font-weight:normal;font-stretch:normal;font-size:0.634609px;line-height:1.25;font-family:DREAMS;-inkscape-font-specification:'DREAMS, Normal';font-variant-ligatures:normal;font-variant-caps:normal;font-variant-numeric:normal;font-variant-east-asian:normal;white-space:pre;mix-blend-mode:normal;fill:#ffffff;fill-opacity:1;stroke:none;stroke-width:6.39455;stroke-linecap:round;stroke-linejoin:round;stroke-miterlimit:4;stroke-dasharray:none;stroke-opacity:1;paint-order:markers stroke fill"
         id="path1917-5" />
      <path
         d="m 329.8727,1227.0138 h 5.11578 l 6.26546,5.8823 6.26547,-5.8823 h 5.11577 l -9.60501,9.0089 v 8.0235 h -3.55854 v -8.0296 z"
         style="font-style:normal;font-variant:normal;font-weight:normal;font-stretch:normal;font-size:0.634609px;line-height:1.25;font-family:DREAMS;-inkscape-font-specification:'DREAMS, Normal';font-variant-ligatures:normal;font-variant-caps:normal;font-variant-numeric:normal;font-variant-east-asian:normal;white-space:pre;mix-blend-mode:normal;fill:#ffffff;fill-opacity:1;stroke:none;stroke-width:6.39455;stroke-linecap:round;stroke-linejoin:round;stroke-miterlimit:4;stroke-dasharray:none;stroke-opacity:1;paint-order:markers stroke fill"
         id="path1919-0" />
      <path
         style="display:inline;mix-blend-mode:normal;fill:#ff0000;fill-opacity:1;stroke:none;stroke-width:0.528172;stroke-linecap:butt;stroke-linejoin:miter;stroke-miterlimit:4;stroke-dasharray:none;stroke-opacity:1"
         d="m 344.2489,1254.2136 h -453.92176 l 407.2771,5.464 z"
         id="path1092-2-3-8-8-0-6-5-7-9-6-4-3-1-84"
         inkscape:export-xdpi="300"
         inkscape:export-ydpi="300" />
      <path
         id="path1724-1-50"
         style="display:inline;fill:#ff0000;stroke:none;stroke-width:0.154889;stroke-linecap:butt;stroke-linejoin:miter;stroke-miterlimit:4;stroke-dasharray:none;stroke-opacity:1"
         d="m 465.60111,1088.0556 c -80.05773,20.6197 -130.31452,59.3702 -130.31452,59.3702 0,0 5.25193,0.6151 10.72153,8.3308 l 4.99858,7.0634 c 0,0 37.20047,-39.5964 114.59441,-74.7644 z"
         inkscape:export-xdpi="300"
         inkscape:export-ydpi="300" />
      <path
         style="display:inline;fill:#ff0000;stroke:none;stroke-width:0.40981px;stroke-linecap:butt;stroke-linejoin:miter;stroke-opacity:1"
         d="m 284.22455,1224.2916 c 0,0 -2.17713,7.7098 -3.02236,12.1153 l 5.91666,-8.9776 c 0,0 1.43436,-2.2923 2.24116,-2.7534 0,0 -4.34145,0.064 -5.13546,-0.3843 z"
         id="path1733-2-9"
         inkscape:export-xdpi="300"
         inkscape:export-ydpi="300" />
      <path
         style="display:inline;fill:#ff0000;stroke:none;stroke-width:0.40981px;stroke-linecap:butt;stroke-linejoin:miter;stroke-opacity:1"
         d="m 294.90763,1224.6427 6.56534,0.017 -2.84347,5.0079 -1.70717,-2.5663 c 0,0 -1.05826,-1.6924 -2.0147,-2.4596 z"
         id="path1737-3-1"
         inkscape:export-xdpi="300"
         inkscape:export-ydpi="300" />
      <path
         style="display:inline;fill:#ff0000;stroke:none;stroke-width:0.40981px;stroke-linecap:butt;stroke-linejoin:miter;stroke-opacity:1"
         d="m 293.31725,1239.698 -1.191,-1.8056 -4.81531,7.2868 c 0,0 -0.49906,0.9795 -1.29596,1.5139 -0.79689,0.5344 -1.36742,0.5164 -1.36742,0.5164 l -4.82208,0.032 c 0,0 -0.50586,-0.037 -0.81322,-0.1285 0,0 -4.77703,26.3955 -4.04696,48.198 0,0 1.59337,-22.3112 18.35195,-55.6135 z"
         id="path1739-2-2"
         inkscape:export-xdpi="300"
         inkscape:export-ydpi="300" />
    </g>
  </g>
</svg>
